<svg version="1.1" xmlns="http://www.w3.org/2000/svg" width="24" height="24" viewBox="0 0 24 24">
    <path fill="#4285F4" d="M21.5,12.2c0-0.7-0.1-1.3-0.2-1.9H12v3.8h5.3c-0.2,1.2-0.8,2.3-1.8,3L21,19.9c-2,1.8-4.7,2.9-7.5,2.9C6.5,22.8,0.7,17.2,0.7,9.9S6.5-3,13.5-3C17.2-3,20.1-1.7,21.9,0.1L18,4.1c-1.1-1-2.5-1.6-4.5-1.6c-4.4,0-8,3.7-8,8.2s3.6,8.2,8,8.2c4.8,0,7.1-3.3,7.5-5.2H13.5V10.3z"/>
    <path fill="#34A853" d="M3.5,10.2c0.2-0.6,0.2-1.2,0.2-1.9S3.7,7.7,3.5,7.1h-2c-0.2,0.6-0.3,1.3-0.3,1.9s0.1,1.3,0.3,1.9H3.5z"/>
    <path fill="#FBBC04" d="M12,3.5c1.8,0,3.3,0.6,4.5,1.7l3.8-3.9C18.1,0.6,15.9,0,13.5,0C6.5,0,0.7,5.6,0.7,12.9h2c0.2-0.6,0.2-1.2,0.2-1.9S3.7,10,3.5,9.3L3.5,9.3L12,3.5z"/>
    <path fill="#EA4335" d="M21.5,12.2c0,1.3-0.3,2.5-0.8,3.6L18.7,17l1.7,1.3c2.2-2,3.6-4.7,3.6-7.8c0-1.9-0.5-3.6-1.5-5L20,5.7l-3.8,3.9C16.8,10.7,17.5,11.5,17.5,12.2L21.5,12.2z"/>
</svg>